<?xml version="1.0" encoding="UTF-8" standalone="no"?>
<!DOCTYPE svg PUBLIC "-//W3C//DTD SVG 1.1//EN" "http://www.w3.org/Graphics/SVG/1.1/DTD/svg11.dtd">
<svg width="100%" height="100%" viewBox="0 0 710 710" version="1.1" xmlns="http://www.w3.org/2000/svg" xmlns:xlink="http://www.w3.org/1999/xlink" xml:space="preserve" xmlns:serif="http://www.serif.com/" style="fill-rule:evenodd;clip-rule:evenodd;stroke-linejoin:round;stroke-miterlimit:2;">
    <g transform="matrix(1,0,0,1,-295.276,-295.276)">
        <g transform="matrix(1,0,0,1,-802.62,-917.148)">
            <path d="M1806.91,1318.78C1806.91,1260.08 1759.26,1212.42 1700.56,1212.42L1204.25,1212.42C1145.55,1212.42 1097.9,1260.08 1097.9,1318.78L1097.9,1815.09C1097.9,1873.78 1145.55,1921.44 1204.25,1921.44L1700.56,1921.44C1759.26,1921.44 1806.91,1873.78 1806.91,1815.09L1806.91,1318.78Z" style="fill:white;"/>
            <clipPath id="_clip1">
                <path d="M1806.91,1318.78C1806.91,1260.08 1759.26,1212.42 1700.56,1212.42L1204.25,1212.42C1145.55,1212.42 1097.9,1260.08 1097.9,1318.78L1097.9,1815.09C1097.9,1873.78 1145.55,1921.44 1204.25,1921.44L1700.56,1921.44C1759.26,1921.44 1806.91,1873.78 1806.91,1815.09L1806.91,1318.78Z"/>
            </clipPath>
            <g clip-path="url(#_clip1)">
                <g transform="matrix(9.73577,0,0,9.73577,-10745.2,-15384.4)">
                    <text x="1241.44px" y="1759.35px" style="font-family:'SegoeUI', 'Segoe UI', sans-serif;font-size:50px;">di</text>
                </g>
            </g>
        </g>
    </g>
</svg>
